# xmcd CD database file
#
# Track frame offsets:
#	150
#	23567
#	42565
#	63845
#	84472
#	107765
#	120452
#	136210
#	153377
#	173230
#	196390
#	208065
#
# Disc length: 2995 seconds
#
# Revision: 0
# Processed by: cddbd v1.5.1PL0 Copyright (c) Steve Scherf et al.
# Submitted via: CDex 1.51
#
DISCID=9d0bb10c
DTITLE=IVY - In the Clear
DYEAR=2005
DGENRE=Pop
TTITLE0=Nothing But the Sky
TTITLE1=Thinking About You
TTITLE2=Keep Moving
TTITLE3=Tess Don't Tell
TTITLE4=Four in the Mourning
TTITLE5=Corners of Your Mind
TTITLE6=Clear My Head
TTITLE7=I've Got You Memorized
TTITLE8=Ocean City Girl
TTITLE9=Feel So Free
TTITLE10=I Know My Way (bonus track)
TTITLE11=I7ve Got You Memorized (The Sandbagger's Remix)
EXTD=YEAR: 2005
EXTT0=
EXTT1=
EXTT2=
EXTT3=
EXTT4=
EXTT5=
EXTT6=
EXTT7=
EXTT8=
EXTT9=
EXTT10=
EXTT11=
PLAYORDER=
